<svg xmlns="http://www.w3.org/2000/svg" viewBox="0 0 860 560"><defs><linearGradient id="g" x1="0" x2="1" y1="0" y2="1"><stop stop-color="#263c53"/><stop offset="1" stop-color="#17241f"/></linearGradient></defs><rect width="860" height="560" fill="url(#g)"/><circle cx="700" cy="100" r="72" fill="#a9c6c5" opacity=".38"/><path d="M0 350 Q220 300 430 350 T860 330 V560H0Z" fill="#e7ecef"/><g opacity=".95"><rect x="70" y="170" width="120" height="150" rx="8" fill="#f4f5ef"/><rect x="210" y="125" width="150" height="195" rx="8" fill="#e7ebe4"/><rect x="385" y="155" width="110" height="165" rx="8" fill="#f0f1eb"/><rect x="515" y="105" width="140" height="215" rx="8" fill="#e2e7df"/><rect x="675" y="145" width="110" height="175" rx="8" fill="#f1f2ed"/></g><rect x="95" y="195" width="22" height="28" rx="3" fill="#263c53" opacity=".65"/><rect x="140" y="195" width="22" height="28" rx="3" fill="#263c53" opacity=".65"/><rect x="235" y="150" width="22" height="28" rx="3" fill="#263c53" opacity=".65"/><rect x="280" y="150" width="22" height="28" rx="3" fill="#263c53" opacity=".65"/><rect x="325" y="150" width="22" height="28" rx="3" fill="#263c53" opacity=".65"/><rect x="410" y="180" width="22" height="28" rx="3" fill="#263c53" opacity=".65"/><rect x="455" y="180" width="22" height="28" rx="3" fill="#263c53" opacity=".65"/><rect x="545" y="130" width="22" height="28" rx="3" fill="#263c53" opacity=".65"/><rect x="590" y="130" width="22" height="28" rx="3" fill="#263c53" opacity=".65"/><rect x="635" y="130" width="22" height="28" rx="3" fill="#263c53" opacity=".65"/><rect x="705" y="170" width="22" height="28" rx="3" fill="#263c53" opacity=".65"/><rect x="750" y="170" width="22" height="28" rx="3" fill="#263c53" opacity=".65"/><path d="M0 430 C180 370 260 450 430 405 S700 370 860 430 V560H0Z" fill="#a9c6c5" opacity=".5"/><g fill="#fff"><text x="48" y="455" font-family="Arial" font-size="30" font-weight="700">UrbanHub Workspace</text><text x="50" y="488" font-family="Arial" font-size="13" letter-spacing="4">FINANCIAL DISTRICT</text></g></svg>